<svg version="1" xmlns="http://www.w3.org/2000/svg" width="1365.333" height="1365.333" viewBox="0 0 1024.000000 1024.000000"><path d="M482 85.1c-36.2 2.7-79.7 11.7-111 22.7-63.1 22.3-118.7 58.1-165.9 106.7-19.7 20.3-34.3 38.3-48.8 60C114 338 90.8 406.1 85 484c-3.4 46.3 2.4 100.3 16 146.6 5.7 19.6 6.9 23.3 14 40.9 16.2 40.7 38.9 78.6 67.8 113.4C232.6 844.7 298 890.4 371 916.2c41.3 14.6 95.8 23.8 141 23.8s99.7-9.2 141-23.8c63.1-22.3 118.7-58.1 165.9-106.7 19.7-20.3 34.3-38.3 48.8-60C910 686 933.2 617.9 939 540c3.4-46.3-2.4-100.3-16-146.6-5.7-19.6-6.9-23.3-14-40.9-21.9-54.9-55.4-104.6-99.5-147.4-20.3-19.7-38.3-34.3-60-48.8C686 114 617.9 90.8 540 85c-15.3-1.1-42.5-1.1-58 .1zm51.5 20.9c59.4 3.4 113.3 18.1 165.2 45 37.9 19.6 68.8 42.4 100.4 73.9 31.5 31.6 54.3 62.5 73.9 100.4 51.3 99 59.7 213.2 23.4 318.8-20.4 59.3-51.9 109.6-97.3 155-31.6 31.5-62.5 54.3-100.4 73.9-99 51.3-213.2 59.7-318.8 23.4-59.3-20.4-109.6-51.9-155-97.3-31.5-31.6-54.3-62.5-73.9-100.4-60.2-116.2-60.9-252.6-2-369.2 20.5-40.6 43-71.6 75.9-104.6 31.6-31.5 62.5-54.3 100.4-73.9 64.8-33.5 136.8-49.1 208.2-45z"/><path d="M489 149.1c-119.7 7.2-229.8 75-290.9 179.3-70 119.4-65.6 269.9 11.2 385.1 14.1 21.1 28.1 38.1 46.8 56.6 36 35.8 81 64.8 126.9 81.9l7.6 2.8 4.7-119.7c2.6-65.8 4.8-120.3 4.7-121.2 0-1.1-1.3-1.9-4.2-2.3-16.6-2.7-30.9-22.7-34.9-48.6-1.5-10.1 1.7-262.2 3.5-266 .6-1.3 2.3-3.1 3.8-3.9 2.4-1.4 3-1.4 6.2.2 2.3 1 3.8 2.6 4.2 4.3.4 1.4.2 37.8-.5 80.8-1.5 104.3-1.5 119 .3 122.5 1.6 3 5.3 5.1 9.1 5.1 3.4 0 8.3-4.5 9-8.3.3-1.8 1.2-47.4 1.9-101.5l1.4-98.4 2.3-2.4c2.8-3 7.7-3.2 11-.5l2.4 1.9-.3 24.4c-.1 13.3-.7 57.7-1.3 98.5-1.2 82.3-1.4 78.3 5.4 81.7 3.4 1.6 4.2 1.7 7.5.4 7.4-2.8 6.9 3.5 8.1-100.8.6-51.4 1.3-95.4 1.5-97.8.7-8.4 8.4-12.2 13.6-6.7l2.3 2.5-1.1 87.7c-1.7 118.6-1.7 110.9 1.2 113.8 6.5 6.5 15.9 3.3 17-5.9.3-2.3 1-47.1 1.7-99.6 1.2-103 .9-98.7 6.4-101.2 3.2-1.4 7.1-.3 9.1 2.7 1.5 2.3 1.5 11.9 0 127.8-.9 68.8-2.1 129.5-2.7 134.7-1.1 11-5.6 25-10.4 33-3.8 6.2-12.3 14.8-17.3 17.4-1.7.9-5.4 2.1-8.3 2.7l-5.1 1.1.6 20.7c.3 11.3 1.1 68.7 1.7 127.6.7 58.8 1.5 107.3 1.8 107.8 1.2 1.2 27.7 4.6 46.1 5.7 30.7 2 66.4-1 98.1-8.1l9.6-2.2.6-11.6c.7-15.3-.9-85.8-2.3-99.1-1.5-15.1-2.7-20.2-7.5-32-15-36.9-24.3-82.4-28.6-141-1.6-21.3-1.6-79.6-.1-101.5 5.6-76.7 19.2-134.8 38.6-163.8 16.4-24.8 35.2-30.7 42.6-13.5 2.2 5 2.3 6.8 2.6 35.3.3 16.5.9 43.3 1.5 59.5.5 16.2 1.3 70 1.6 119.5.5 89.8-.2 138.7-3 181-1.8 28.2-.6 148.9 1.5 151.1.7.6 13.7-5 26.4-11.4 89.8-45.1 157.3-125.3 185.8-220.9 26.2-88 18.1-184.5-22.5-265.4-28.7-57.4-69.2-104-121-139.2-55.8-37.9-116.8-58.6-184.4-62.7-18.8-1.1-23.8-1.1-43.5.1z"/></svg>